<svg fill="none" xmlns="http://www.w3.org/2000/svg" viewBox="0 0 21 27">
  <path d="M21 26.9998h-2.3333v-5.6552c-.001-.8791-.3647-1.722-1.0115-2.3437-.6468-.6217-1.5237-.9713-2.4384-.9722H5.7832c-.9147.0009-1.7916.3505-2.4384.9722-.6468.6217-1.0105 1.4646-1.0115 2.3437v5.6552H0v-5.6552c.0019-1.4737.6117-2.8865 1.6959-3.9286s2.554-1.6283 4.0873-1.6301h9.4336c1.5333.0018 3.0032.588 4.0873 1.6301 1.0842 1.0421 1.694 2.4549 1.6959 3.9286v5.6552ZM10.5 13.5432c-1.3845 0-2.7378-.3947-3.889-1.134-1.1511-.7393-2.0483-1.7901-2.5781-3.0196-.5299-1.2294-.6685-2.5823-.3984-3.8874.2701-1.3052.9368-2.5041 1.9158-3.445.979-.941 2.2262-1.5819 3.584-1.8415 1.3579-.2596 2.7654-.1264 4.0445.3829 1.2791.5092 2.3723 1.3716 3.1415 2.4781C17.0895 4.1832 17.5 5.484 17.5 6.8147c-.0018 1.784-.7399 3.4944-2.0523 4.7558-1.3123 1.2614-3.0917 1.9709-4.9477 1.9727Zm0-11.214c-.923 0-1.8252.263-2.5927.756-.7674.4929-1.3655 1.1934-1.7187 2.013A4.324 4.324 0 0 0 5.923 7.69c.18.8701.6245 1.6693 1.2772 2.2967.6526.6273 1.4841 1.0545 2.3894 1.2276a4.842 4.842 0 0 0 2.6963-.2553c.8527-.3395 1.5815-.9144 2.0943-1.652.5128-.7377.7865-1.605.7865-2.4921 0-1.1897-.4917-2.3306-1.3669-3.1718-.8751-.8412-2.0621-1.3138-3.2998-1.3138Z" fill="#fff"/>
</svg>
