<svg fill="none" xmlns="http://www.w3.org/2000/svg" viewBox="0 0 28 28">
  <g clip-path="url(#a)" fill="#fff">
    <path d="M26.4985 4.7565A3.492 3.492 0 0 0 23.8117 3.5H4.949L4.9 3.0905A3.5 3.5 0 0 0 1.4257 0h-.259a1.1667 1.1667 0 1 0 0 2.3333h.259a1.1667 1.1667 0 0 1 1.1585 1.0302l1.6053 13.65a5.8332 5.8332 0 0 0 5.7937 5.1532h12.1835a1.1665 1.1665 0 0 0 .8249-1.9917 1.1665 1.1665 0 0 0-.8249-.3417H9.9832a3.4998 3.4998 0 0 1-3.29-2.3333h13.9066a5.8332 5.8332 0 0 0 5.7412-4.7985l.9158-5.0797a3.4925 3.4925 0 0 0-.7583-2.8653Zm-1.5318 2.4512-.917 5.0796a3.5002 3.5002 0 0 1-3.4499 2.8794H6.3222L5.2243 5.8333h18.5874a1.1666 1.1666 0 0 1 1.155 1.3744ZM8.1667 27.9999c1.2887 0 2.3333-1.0446 2.3333-2.3333s-1.0446-2.3333-2.3333-2.3333-2.3333 1.0446-2.3333 2.3333 1.0446 2.3333 2.3333 2.3333ZM19.8333 27.9999c1.2887 0 2.3334-1.0446 2.3334-2.3333s-1.0447-2.3333-2.3334-2.3333c-1.2886 0-2.3333 1.0446-2.3333 2.3333s1.0447 2.3333 2.3333 2.3333Z"/>
  </g>
  <defs>
    <clipPath id="a">
      <path fill="#fff" d="M0 0h28v28H0z"/>
    </clipPath>
  </defs>
</svg>
