<svg fill="none" xmlns="http://www.w3.org/2000/svg" viewBox="0 0 138 49">
  <path d="M60.9583 27.36c0 1.06-.25 2.06-.75 3s-1.3 1.71-2.4 2.31c-1.1.58-2.51.87-4.23.87h-3.78V42h-3.42V21.15h7.2c1.6 0 2.95.28 4.05.84 1.12.54 1.95 1.28 2.49 2.22.56.94.84 1.99.84 3.15Zm-7.38 3.39c1.3 0 2.27-.29 2.91-.87.64-.6.96-1.44.96-2.52 0-2.28-1.29-3.42-3.87-3.42h-3.78v6.81h3.78ZM67.64 19.8V42h-3.42V19.8h3.42Zm3.3502 13.86c0-1.66.34-3.13 1.02-4.41.7-1.28 1.64-2.27 2.82-2.97 1.2-.72 2.52-1.08 3.96-1.08 1.3 0 2.43.26 3.39.78.98.5 1.76 1.13 2.34 1.89v-2.4h3.45V42h-3.45v-2.46c-.58.78-1.37 1.43-2.37 1.95s-2.14.78-3.42.78c-1.42 0-2.72-.36-3.9-1.08-1.18-.74-2.12-1.76-2.82-3.06-.68-1.32-1.02-2.81-1.02-4.47Zm13.53.06c0-1.14-.24-2.13-.72-2.97-.46-.84-1.07-1.48-1.83-1.92-.76-.44-1.58-.66-2.46-.66-.88 0-1.7.22-2.46.66-.76.42-1.38 1.05-1.86 1.89-.46.82-.69 1.8-.69 2.94s.23 2.14.69 3c.48.86 1.1 1.52 1.86 1.98.78.44 1.6.66 2.46.66.88 0 1.7-.22 2.46-.66.76-.44 1.37-1.08 1.83-1.92.48-.86.72-1.86.72-3Zm16.2818-8.52c1.3 0 2.46.27 3.48.81 1.04.54 1.85 1.34 2.43 2.4.58 1.06.87 2.34.87 3.84V42h-3.39v-9.24c0-1.48-.37-2.61-1.11-3.39-.74-.8-1.75-1.2-3.03-1.2-1.2798 0-2.2998.4-3.0598 1.2-.74.78-1.11 1.91-1.11 3.39V42h-3.42V25.47h3.42v1.89c.56-.68 1.27-1.21 2.13-1.59.88-.38 1.81-.57 2.7898-.57Zm15.133 3.06v9.15c0 .62.14 1.07.42 1.35.3.26.8.39 1.5.39h2.1V42h-2.7c-1.54 0-2.72-.36-3.54-1.08-.82-.72-1.23-1.89-1.23-3.51v-9.15h-1.95v-2.79h1.95v-4.11h3.45v4.11h4.02v2.79h-4.02Zm13.172 14.01c-1.3 0-2.47-.23-3.51-.69-1.02-.48-1.83-1.12-2.43-1.92-.6-.82-.92-1.73-.96-2.73h3.54c.06.7.39 1.29.99 1.77.62.46 1.39.69 2.31.69.96 0 1.7-.18 2.22-.54.54-.38.81-.86.81-1.44 0-.62-.3-1.08-.9-1.38-.58-.3-1.51-.63-2.79-.99-1.24-.34-2.25-.67-3.03-.99-.78-.32-1.46-.81-2.04-1.47-.56-.66-.84-1.53-.84-2.61 0-.88.26-1.68.78-2.4.52-.74 1.26-1.32 2.22-1.74.98-.42 2.1-.63 3.36-.63 1.88 0 3.39.48 4.53 1.44 1.16.94 1.78 2.23 1.86 3.87h-3.42c-.06-.74-.36-1.33-.9-1.77-.54-.44-1.27-.66-2.19-.66-.9 0-1.59.17-2.07.51-.48.34-.72.79-.72 1.35 0 .44.16.81.48 1.11.32.3.71.54 1.17.72.46.16 1.14.37 2.04.63 1.2.32 2.18.65 2.94.99.78.32 1.45.8 2.01 1.44.56.64.85 1.49.87 2.55 0 .94-.26 1.78-.78 2.52s-1.26 1.32-2.22 1.74c-.94.42-2.05.63-3.33.63Z" fill="#fff"/>
  <path d="M.8236 26.7153c.575.7651 1.4297 1.4046 2.4735 1.8507 1.0437.4461 2.2374.6821 3.4542.6828h7.0542v.6567c0 .5224.291 1.0235.8088 1.393.5179.3694 1.2202.577 1.9526.577.7323 0 1.4347-.2076 1.9525-.577.5179-.3695.8088-.8706.8088-1.393v-.6567h7.0543c1.2169-.0009 2.4107-.237 3.4545-.6833 1.0438-.4464 1.8985-1.0862 2.4732-1.8515.5849-.7741.8653-1.6468.8115-2.5254-.0538-.8786-.4398-1.7305-1.1171-2.4653l-2.071-2.2458c.3169-.2315.5865-.4937.8008-.7788.4206-.5553.6226-1.1816.5843-1.8122-.0382-.6306-.3152-1.242-.8016-1.7693l-3.1865-3.4594a3.4106 3.4106 0 0 0 .3884-.4281c.4227-.5491.6308-1.1691.6027-1.7953-.0282-.626-.2917-1.2353-.7629-1.764a2.7523 2.7523 0 0 0-.2209-.214L20.3444 1.557c-.0442-.0355-.0957-.071-.1344-.1038-.9726-.6807-2.2807-1.062-3.6431-1.062-1.3625 0-2.6705.3813-3.6431 1.062a2.0435 2.0435 0 0 0-.1289.0998L5.7701 7.4472a2.6195 2.6195 0 0 0-.2191.2115c-.475.528-.742 1.1374-.7728 1.7644-.0308.627.1758 1.2483.598 1.7987.1203.1582.2582.3093.4123.4518l-3.1719 3.4396c-.4875.5268-.7658 1.138-.8053 1.7687-.0396.6306.1611 1.2571.5807 1.8128.2143.2852.484.5474.8008.7788l-2.071 2.2459C.4442 22.4552.0587 23.3083.0062 24.188c-.0525.8796.23 1.753.8174 2.5273Zm4.9189-2.8315 3.9229-4.2553c.2507-.2721.4029-.5844.4431-.9088.0401-.3244-.0331-.6508-.2131-.9501-.18-.2993-.4612-.562-.8184-.7648-.3573-.2027-.7794-.3391-1.2286-.397l4.1163-4.4667c.2131-.2359.3534-.5015.4116-.779.0582-.2776.0329-.5609-.0742-.8309-.1071-.2701-.2935-.5208-.5469-.7355-.2534-.2147-.5679-.3885-.9227-.5098l5.7344-4.8134 5.7067 4.8134c-.354.1221-.6673.2968-.9191.5123-.2518.2155-.4361.4669-.5407.7374-.1045.2704-.1269.5537-.0657.8308.0613.2771.2048.5417.421.776l4.1181 4.4654c-.4492.0579-.8713.1943-1.2286.397-.3572.2028-.6384.4655-.8184.7648-.18.2993-.2532.6257-.2131.9501.0402.3244.1924.6367.4431.9088l3.9248 4.2553c.133.1408.2088.3052.2189.4749.0101.1697-.046.3381-.1618.4864-.0989.1409-.2512.2592-.4397.3414-.1884.0822-.4054.125-.6262.1236H6.7512c-.2208.0014-.4378-.0414-.6262-.1236-.1884-.0822-.3407-.2005-.4396-.3414-.116-.1483-.172-.3167-.1618-.4864.01-.1697.0858-.3341.2189-.4749Z" fill="#54C352"/>
  <path d="M15.6464 22.682c1.5251 0 2.7614-.882 2.7614-1.97s-1.2363-1.9701-2.7614-1.9701c-1.525 0-2.7613.8821-2.7613 1.9701s1.2363 1.97 2.7613 1.97ZM17.4873 16.1153c1.5251 0 2.7614-.882 2.7614-1.97s-1.2363-1.97-2.7614-1.97c-1.525 0-2.7613.882-2.7613 1.97s1.2363 1.97 2.7613 1.97Z" fill="#54C352"/>
</svg>
